<svg xmlns="http://www.w3.org/2000/svg" width="1024" height="1024" viewBox="0 0 1024 1024"><defs><linearGradient id="bg" x2="0" y2="1"><stop stop-color="#eef7f1"/><stop offset="1" stop-color="#dcebe3"/></linearGradient><linearGradient id="cube" x2="1" y2="1"><stop stop-color="#7db5a3"/><stop offset="1" stop-color="#237c67"/></linearGradient></defs><rect x="52" y="52" width="920" height="920" rx="218" fill="url(#bg)"/><path d="M512 226 760 369 760 655 512 798 264 655 264 369Z" fill="url(#cube)"/><path d="m512 226 248 143-248 143-248-143Z" fill="#afd3c0"/><path d="M512 512 760 369 760 655 512 798Z" fill="#388e76"/><path d="M512 512 264 369M512 512l248-143M512 512v286" fill="none" stroke="#d4eadb" stroke-width="14" stroke-linejoin="round"/><path d="m327 410 186 106 180-105m-180-85v190m-90-133 178 102m-275-48 187 107m-137-76v217m89-167v217m125-162v217m74-258v217" fill="none" stroke="#d4eadb" stroke-opacity=".3" stroke-width="6"/></svg>
